<?xml version="1.0" encoding="utf-8"?>
<!-- Generator: Adobe Illustrator 23.0.1, SVG Export Plug-In . SVG Version: 6.00 Build 0)  -->
<svg version="1.1" id="Camada_1" xmlns="http://www.w3.org/2000/svg" xmlns:xlink="http://www.w3.org/1999/xlink" x="0px" y="0px"
	 viewBox="0 0 90 90" style="enable-background:new 0 0 90 90;" xml:space="preserve">
<style type="text/css">
	.st0{fill:#F5EEE4;}
	.st1{fill:#FEDBAF;}
	.st2{fill:#FEAB41;}
	.st3{fill:#FEFEFD;}
</style>
<rect class="st0" width="90" height="90"/>
<g>
	<path class="st1" d="M7.8851,43.8068C7.6287,23.4,23.9572,8.7492,47.1138,8.2483c19.8512-0.4295,35.1495,15.4368,35.003,38.949
		C81.9907,67.4322,66.449,81.2629,44.2365,81.752C23.3089,82.2128,8.0013,63.2673,7.8851,43.8068z M45.257,78.19
		c19.4424,0.0288,34.0557-14.3795,34.0883-33.61c0.0335-19.7814-14.8196-34.3096-35.0949-34.3271
		C26.5725,10.2376,11.7257,25.769,11.2858,43.8957C10.889,60.248,25.4106,79.4313,45.257,78.19z"/>
	<path class="st2" d="M45.257,78.19c-19.8464,1.2412-34.368-17.942-33.9712-34.2944c0.4399-18.1267,15.2867-33.6581,32.9646-33.6428
		C64.5256,10.2704,79.3788,24.7986,79.3453,44.58C79.3127,63.8106,64.6994,78.2188,45.257,78.19z M30.8416,34.1631
		c6.2593,9.4168,12.1856,18.5271,8.9695,30.3636c3.6065,0.1095,6.1763,0.6482,8.8168-0.3142
		c0.1048-0.6406,0.3641-1.248,0.2699-1.7945c-1.6289-9.4532,2.2158-17.2407,7.2926-24.7368
		c2.0121-2.971,3.6437-6.2015,5.4115-9.3347c0.4451-0.789,1.2807-1.5314,0.4665-2.8817c-2.5321-0.0806-5.2321-0.3981-8.0032,0.2187
		c-3.0105,5.3082-5.9866,10.5559-9.3117,16.4187c-1.7958-3.3371-3.1962-5.9394-4.6801-8.6968
		C37.2711,33.5218,34.5575,33.0235,30.8416,34.1631z"/>
	<path class="st3" d="M30.8416,34.1631c3.7159-1.1396,6.4296-0.6413,9.2319-0.7578c1.4838,2.7574,2.8843,5.3598,4.6801,8.6968
		c3.325-5.8628,6.3012-11.1105,9.3117-16.4187c2.7711-0.6167,5.4711-0.2993,8.0032-0.2187
		c0.8142,1.3503-0.0214,2.0927-0.4665,2.8817c-1.7678,3.1333-3.3994,6.3638-5.4115,9.3347
		c-5.0768,7.496-8.9215,15.2836-7.2926,24.7368c0.0942,0.5465-0.1651,1.154-0.2699,1.7945
		c-2.6404,0.9624-5.2103,0.4237-8.8168,0.3142C43.0271,52.6902,37.1008,43.5799,30.8416,34.1631z"/>
</g>
</svg>
