<svg version="1.1" xmlns="http://www.w3.org/2000/svg" x="0" y="0" viewBox="0 0 92.898 92.898" xml:space="preserve">
    <style>
        .st0{fill:none}
    </style>
    <path class="st0" d="M92.898 92.898H0V0h92.898v92.898zM5.366 44.89C5.49 65.637 21.81 85.835 44.122 85.344c23.681-.521 40.25-15.267 40.385-36.84C84.663 23.437 68.353 6.521 47.19 6.98 22.501 7.513 5.093 23.133 5.366 44.89z"/>
    <path d="M5.366 44.89C5.093 23.132 22.501 7.512 47.19 6.98c21.164-.459 37.474 16.457 37.318 41.524-.134 21.573-16.704 36.319-40.385 36.84C21.81 85.835 5.49 65.637 5.366 44.89zM45.21 81.546c20.728.03 36.308-15.33 36.342-35.833.036-21.09-15.8-36.579-37.416-36.598C25.29 9.1 9.462 25.66 8.992 44.984 8.569 62.418 24.05 82.87 45.21 81.547z" fill="#fedbaf"/>
    <path d="M45.21 81.547C24.05 82.87 8.569 62.418 8.992 44.984 9.46 25.66 25.289 9.1 44.136 9.116c21.617.019 37.452 15.508 37.416 36.598-.034 20.502-15.614 35.863-36.342 35.833zm-15.37-46.94c6.674 10.04 12.992 19.753 9.564 32.373 3.844.116 6.584.69 9.4-.335.111-.683.388-1.33.287-1.914-1.736-10.078 2.363-18.38 7.775-26.372 2.145-3.168 3.885-6.612 5.77-9.952.474-.842 1.365-1.633.497-3.073-2.7-.086-5.578-.424-8.533.233l-9.927 17.505-4.99-9.272c-2.987.124-5.88-.407-9.842.808z" fill="#feab41"/>
    <path class="st0" d="M29.84 34.608c3.963-1.215 6.856-.684 9.843-.808l4.99 9.272L54.6 25.567c2.955-.657 5.833-.319 8.533-.233.868 1.44-.023 2.231-.498 3.073-1.884 3.34-3.624 6.784-5.769 9.952-5.413 7.991-9.512 16.294-7.775 26.372.1.583-.176 1.23-.288 1.914-2.815 1.026-5.555.451-9.4.335 3.43-12.62-2.889-22.333-9.562-32.372z"/>
</svg>
