<svg xmlns="http://www.w3.org/2000/svg" viewBox="0 0 55 55"><path d="M51.376 45.291C46.716 40.66 44.354 35.179 44.354 29v-8.994c.043-6.857-4.568-11.405-8.53-13.216a20.104 20.104 0 0 0-3.494-1.216V5c0-2.757-2.243-5-5-5s-5 2.243-5 5v.661a19.8 19.8 0 0 0-3.146 1.138C14.805 8.817 10.369 13.681 10.329 20v9c0 6.388-2.256 11.869-6.705 16.291a1.002 1.002 0 0 0 .535 1.695l9.491 1.639c1.768.305 3.396.555 4.945.761C20.341 52.806 23.768 55 27.512 55c3.745 0 7.173-2.196 8.917-5.618 1.543-.205 3.163-.454 4.921-.758l9.49-1.639a1 1 0 0 0 .536-1.694zM24.329 5c0-1.654 1.346-3 3-3s3 1.346 3 3v.182a19.883 19.883 0 0 0-6 .047V5zm3.183 48c-2.532 0-4.898-1.258-6.417-3.315 2.235.23 4.321.346 6.406.346 2.093 0 4.186-.116 6.43-.349C32.411 51.741 30.044 53 27.512 53zm13.498-6.347c-1.919.331-3.678.6-5.34.812h-.006c-.732.093-1.444.174-2.141.244l-.022.002c-.637.064-1.26.115-1.876.16l-.35.024a58.02 58.02 0 0 1-1.587.083c-.108.004-.216.01-.324.013a55.413 55.413 0 0 1-5.613-.095l-.373-.025c-.6-.043-1.207-.094-1.828-.155l-.064-.006a80.764 80.764 0 0 1-2.126-.242h-.009a121.441 121.441 0 0 1-5.361-.814L6.329 45.33c3.983-4.554 6-10.038 6-16.33v-8.994c.034-5.435 3.888-9.637 7.691-11.391a17.877 17.877 0 0 1 3.497-1.183c.01-.002.021-.001.031-.003a18.18 18.18 0 0 1 7.58-.068c.013.003.026-.003.039-.001 1.304.272 2.588.684 3.825 1.249 3.689 1.687 7.396 5.861 7.361 11.392v9c0 6.033 2.175 11.643 6.313 16.331l-7.656 1.321z"/><path d="M33.746 11.338c-3.875-1.771-8.62-1.773-12.469.002-2.195 1.012-5.918 3.973-5.948 8.654A1 1 0 0 0 16.323 21h.006a1 1 0 0 0 1-.994c.023-3.677 3.019-6.035 4.785-6.85 3.331-1.537 7.446-1.533 10.799 0a1 1 0 0 0 .833-1.818z"/></svg>